<svg width="50px" height="39px" viewBox="0 0 50 39" version="1.1" xmlns="http://www.w3.org/2000/svg" xmlns:xlink="http://www.w3.org/1999/xlink">
    <!-- Generator: Sketch 45.2 (43514) - http://www.bohemiancoding.com/sketch -->
    <desc>Created with Sketch.</desc>
    <defs>
        <polygon id="path-1" points="2.56676651e-21 0.0773484848 2.56676651e-21 38.0681818 30.2872917 38.0681818 30.2872917 0.0773484848 0 0.0773484848"></polygon>
    </defs>
    <g id="Symbols" stroke="none" stroke-width="1" fill="none" fill-rule="evenodd">
        <g id="Header" transform="translate(-49.000000, -20.000000)">
            <g id="Logo">
                <g transform="translate(49.000000, 20.000000)">
                    <path d="M38.4151515,3.54450758 C38.4151515,4.91401515 37.5172348,6.47329545 36.1935606,7.89147727 L36.4304924,8.17556818 C38.650947,6.23731061 41.3920455,3.96950758 43.8486742,2.45776515 C45.5973485,1.37064394 47.3454545,0.708901515 48.8104167,0.567045455 L48.8104167,0.189393939 L34.4454545,0.189393939 L34.4454545,0.567045455 C36.3831439,0.708901515 38.4151515,1.37064394 38.4151515,3.54450758" id="Fill-1" fill="#414040"></path>
                    <g id="Group-5" transform="translate(0.000000, 0.112121)">
                        <mask id="mask-2" fill="white">
                            <use xlink:href="#path-1"></use>
                        </mask>
                        <g id="Clip-4"></g>
                        <path d="M26.2236553,23.9868182 L26.2236553,5.93681818 C26.2236553,1.91977273 27.2632386,0.833409091 30.2872917,0.455 L30.2872917,0.0773484848 L16.3475189,0.0773484848 L2.40982955,0.0773484848 L2.40982955,0.455 C5.48047348,0.833409091 6.52005682,1.96712121 6.52005682,5.93681818 L6.52005682,25.5459091 C6.52005682,29.79875 6.09505682,32.2085985 4.67744318,34.0525379 C3.77933712,35.1860606 1.93691288,36.8396591 -1.89393941e-05,37.5953409 L0.142215909,38.0682576 C3.30717803,37.2646591 7.18179924,35.3748864 9.40244318,33.2953409 C11.3399432,31.4529167 12.2852083,29.2318939 12.2852083,25.49875 L12.2852083,5.93681818 C12.2852083,1.91977273 13.4467614,0.455 16.3475189,0.455 C19.2497917,0.455 20.4115341,1.96712121 20.4115341,5.93681818 L20.4115341,23.9868182 C20.4115341,27.9561364 19.4194886,29.0902273 16.3475189,29.4678788 L16.3475189,29.8462879 L30.2872917,29.8462879 L30.2872917,29.4678788 C27.2632386,29.0902273 26.2236553,28.0031061 26.2236553,23.9868182" id="Fill-3" fill="#414040" mask="url(#mask-2)"></path>
                    </g>
                    <path d="M44.4631818,26.4145833 C41.9588258,23.9100379 35.3908333,15.4520833 32.7451894,11.7189394 L29.0593939,15.9244318 C31.0438636,19.0907197 33.7842045,22.7285985 36.0046591,25.4693182 C38.7925379,28.8717803 40.6357197,29.6282197 43.6126136,29.9585227 C45.5972727,30.1941288 48.7629924,30.2886364 49.8497348,30.2886364 L49.8497348,29.9107955 C47.581553,29.4852273 46.0222727,27.9257576 44.4631818,26.4145833" id="Fill-6" fill="#414040"></path>
                </g>
            </g>
        </g>
    </g>
</svg>