<?xml version="1.0" encoding="UTF-8"?>
<svg width="59px" height="45px" viewBox="0 0 59 45" version="1.1" xmlns="http://www.w3.org/2000/svg" xmlns:xlink="http://www.w3.org/1999/xlink">
    <!-- Generator: Sketch 45.2 (43514) - http://www.bohemiancoding.com/sketch -->
    <title>Logo</title>
    <desc>Created with Sketch.</desc>
    <defs>
        <polygon id="path-1" points="0.370912481 0.206207502 17.2057227 0.206207502 17.2057227 9.5656043 0.370912481 9.5656043 0.370912481 0.206207502"></polygon>
        <polygon id="path-3" points="0.274930906 0.206207502 35.7698421 0.206207502 35.7698421 44.7292411 0.274930906 44.7292411 0.274930906 0.206207502"></polygon>
    </defs>
    <g id="Symbols" stroke="none" stroke-width="1" fill="none" fill-rule="evenodd">
        <g id="Footer" transform="translate(-131.000000, -75.000000)">
            <g id="Txt">
                <g transform="translate(15.000000, 75.000000)">
                    <g id="Logo" transform="translate(116.000000, 0.000000)">
                        <g id="Group-8">
                            <g id="Group-3" transform="translate(40.509103, 0.166681)">
                                <mask id="mask-2" fill="white">
                                    <use xlink:href="#path-1"></use>
                                </mask>
                                <g id="Clip-2"></g>
                                <path d="M5.02344593,4.13820794 C5.02344593,5.74349419 3.97115376,7.57064927 2.41993639,9.23261461 L2.69736565,9.5656043 C5.29938364,7.29396578 8.51182057,4.63638737 11.3908949,2.86441983 C13.4402917,1.59063172 15.4889428,0.815023031 17.2057227,0.649087519 L17.2057227,0.206095635 L0.370912481,0.206095635 L0.370912481,0.649087519 C2.64180522,0.815023031 5.02344593,1.59063172 5.02344593,4.13820794" id="Fill-1" fill="#EBEBEB" mask="url(#mask-2)"></path>
                            </g>
                            <g id="Group-6" transform="translate(0.237113, 0.166681)">
                                <mask id="mask-4" fill="white">
                                    <use xlink:href="#path-3"></use>
                                </mask>
                                <g id="Clip-5"></g>
                                <path d="M31.0076793,28.2266747 L31.0076793,7.07306646 C31.0076793,2.36534547 32.2262799,1.09230314 35.7698421,0.648938364 L35.7698421,0.205946479 L19.433957,0.205946479 L3.0995635,0.205946479 L3.0995635,0.648938364 C6.69794034,1.09230314 7.91616802,2.4209059 7.91616802,7.07306646 L7.91616802,30.0538298 C7.91616802,35.0378614 7.41798859,37.8621211 5.75714192,40.0230116 C4.70484975,41.3512415 2.54545076,43.2895174 0.274930906,44.1751283 L0.441612196,44.7292411 C4.15148278,43.787324 8.69177671,41.5727374 11.2941676,39.1359092 C13.5650603,36.9765102 14.67254,34.3733735 14.67254,29.9986422 L14.67254,7.07306646 C14.67254,2.36534547 16.033957,0.648938364 19.433957,0.648938364 C22.8347028,0.648938364 24.1957469,2.4209059 24.1957469,7.07306646 L24.1957469,28.2266747 C24.1957469,32.8784624 23.0334525,34.207438 19.433957,34.6504299 L19.433957,35.0937947 L35.7698421,35.0937947 L35.7698421,34.6504299 C32.2262799,34.207438 31.0076793,32.9336499 31.0076793,28.2266747" id="Fill-4" fill="#FFFFFF" mask="url(#mask-4)"></path>
                            </g>
                            <path d="M52.6203444,31.1069796 C49.6853367,28.1719719 41.9877934,18.2598421 38.887596,13.8847379 L34.5680522,18.813209 C36.8933867,22.5238254 40.1050779,26.7874358 42.7074687,29.999127 C45.9747203,33.9867997 48.1348651,34.8731564 51.6232397,35.2605878 C53.94932,35.5365256 57.6595635,35.6472735 58.9333516,35.6472735 L58.9333516,35.2042816 C56.2750274,34.7053564 54.4474995,32.8782014 52.6203444,31.1069796" id="Fill-7" fill="#FFFFFF"></path>
                        </g>
                    </g>
                </g>
            </g>
        </g>
    </g>
</svg>